<svg xmlns="http://www.w3.org/2000/svg" xmlns:xlink="http://www.w3.org/1999/xlink" id="Group_4" data-name="Group 4" width="212.51" height="52" viewBox="0 0 212.51 52"><defs><clipPath id="clip-path"><rect id="Rectangle_15" data-name="Rectangle 15" width="212.51" height="52" fill="none"></rect></clipPath></defs><path id="Path_1" data-name="Path 1" d="M6.029,26.932V6.408H19.018v4.046H10.076v3.46h6.978V17.96H10.076v4.926h8.942v4.046Z" transform="translate(-4.65 -4.942)" fill="#001f3c"></path><g id="Group_3" data-name="Group 3"><g id="Group_2" data-name="Group 2" clip-path="url(#clip-path)"><path id="Path_2" data-name="Path 2" d="M90.519,35.992v9.324H86.473v-8.21a2.667,2.667,0,0,0-.374-1.4,2.8,2.8,0,0,0-1-.989,2.682,2.682,0,0,0-1.385-.367,2.72,2.72,0,0,0-2.756,2.756v8.21H76.915L76.9,30.656h4.046l.015,1.085a5.3,5.3,0,0,1,1.722-1.1,5.753,5.753,0,0,1,4.984.381A5.939,5.939,0,0,1,89.742,33.1a5.527,5.527,0,0,1,.777,2.9" transform="translate(-59.307 -23.326)" fill="#001f3c"></path><path id="Path_3" data-name="Path 3" d="M149.259,45.315l-.015-14.66h4.046l.015,1.085a5.3,5.3,0,0,1,1.723-1.1,5.573,5.573,0,0,1,2.089-.4,5.765,5.765,0,0,1,1.613.234l-1.6,4.09a2.763,2.763,0,0,0-1.07-.22,2.72,2.72,0,0,0-2.756,2.756v8.21Z" transform="translate(-115.1 -23.326)" fill="#001f3c"></path><path id="Path_4" data-name="Path 4" d="M199.32,10.932a2.038,2.038,0,0,1-1.481-.587,2.053,2.053,0,0,1,0-2.9,2.021,2.021,0,0,1,1.466-.587,2,2,0,0,1,1.458.587,1.958,1.958,0,0,1,.594,1.451,1.992,1.992,0,0,1-2.038,2.038m-2.052,1.686h4.046v14.66h-4.046Z" transform="translate(-152.114 -5.287)" fill="#001f3c"></path><path id="Path_5" data-name="Path 5" d="M232.568,45.826a7.448,7.448,0,0,1-3.877-1.041,7.857,7.857,0,0,1-2.793-2.8,7.789,7.789,0,0,1-.44-6.89,7.859,7.859,0,0,1,4.119-4.119,7.471,7.471,0,0,1,2.991-.6,4.543,4.543,0,0,1,2.258.55,5.634,5.634,0,0,1,1.671,1.415V30.756h4.046v21.99H236.5V43.862a5.828,5.828,0,0,1-1.671,1.407,4.5,4.5,0,0,1-2.258.557m.059-11.567a3.354,3.354,0,0,0-1.833.52,3.8,3.8,0,0,0-1.3,1.393,4.068,4.068,0,0,0,0,3.848,3.756,3.756,0,0,0,1.3,1.378,3.385,3.385,0,0,0,1.833.513,3.252,3.252,0,0,0,1.8-.513,3.634,3.634,0,0,0,1.261-1.385,4.056,4.056,0,0,0,.462-1.927,4.015,4.015,0,0,0-.462-1.921,3.708,3.708,0,0,0-1.261-1.385,3.223,3.223,0,0,0-1.8-.52" transform="translate(-173.414 -23.426)" fill="#001f3c"></path><path id="Path_6" data-name="Path 6" d="M303.931,41.334V32.04h4.046v8.18a2.666,2.666,0,0,0,.374,1.4,2.781,2.781,0,0,0,1,.989,2.691,2.691,0,0,0,1.378.367,2.72,2.72,0,0,0,2.756-2.756V32.04h4.046l.015,14.66H313.5l-.015-1.114a5.3,5.3,0,0,1-1.722,1.1,5.738,5.738,0,0,1-4.977-.381,5.916,5.916,0,0,1-2.082-2.075,5.526,5.526,0,0,1-.777-2.9" transform="translate(-234.397 -24.71)" fill="#001f3c"></path><path id="Path_7" data-name="Path 7" d="M378.608,45.7a6.811,6.811,0,0,1-3.687-1.041,7.683,7.683,0,0,1-2.654-2.8,8.132,8.132,0,0,1-.418-6.883,7.9,7.9,0,0,1,1.576-2.463,7.324,7.324,0,0,1,2.338-1.664,7.1,7.1,0,0,1,6.032.146,7.358,7.358,0,0,1,2.448,2.038,8.074,8.074,0,0,1,1.437,2.917,7.95,7.95,0,0,1,.139,3.386H375.647a3.5,3.5,0,0,0,.593,1.166,2.974,2.974,0,0,0,1,.828,3.059,3.059,0,0,0,1.371.323,2.689,2.689,0,0,0,1.407-.352,3.508,3.508,0,0,0,1.1-.982l4.134.953a7.785,7.785,0,0,1-2.668,3.189,6.777,6.777,0,0,1-3.973,1.239M375.5,36.344h6.23a3.615,3.615,0,0,0-.645-1.32,3.359,3.359,0,0,0-1.092-.924,2.923,2.923,0,0,0-1.385-.337,2.891,2.891,0,0,0-1.371.337,3.319,3.319,0,0,0-1.085.916,3.788,3.788,0,0,0-.652,1.327" transform="translate(-286.337 -23.326)" fill="#001f3c"></path><path id="Path_8" data-name="Path 8" d="M489.492,6.408h4.046V26.932h-4.046V17.96h-7.8v8.972h-4.046V6.408h4.046v7.506h7.8Z" transform="translate(-368.371 -4.942)" fill="#001f3c"></path><path id="Path_9" data-name="Path 9" d="M569.128,30.656h4.046v14.66h-4.061l-.191-1.525a4.5,4.5,0,0,1-1.466,1.378,4.05,4.05,0,0,1-2.1.528,7.626,7.626,0,0,1-3.064-.616,8,8,0,0,1-2.507-1.7,7.887,7.887,0,0,1-1.693-2.514,7.76,7.76,0,0,1-.608-3.071,7.434,7.434,0,0,1,2.184-5.336,7.658,7.658,0,0,1,2.4-1.627,7.291,7.291,0,0,1,2.925-.587,5.1,5.1,0,0,1,2.426.572,6.97,6.97,0,0,1,1.884,1.451Zm-3.87,11.156a3.287,3.287,0,0,0,1.8-.513,3.672,3.672,0,0,0,1.275-1.385,4.21,4.21,0,0,0,0-3.863,3.691,3.691,0,0,0-1.275-1.378,3.291,3.291,0,0,0-1.8-.513,3.389,3.389,0,0,0-1.833.513,3.744,3.744,0,0,0-1.3,1.385,3.907,3.907,0,0,0-.484,1.928,3.86,3.86,0,0,0,.491,1.928A3.8,3.8,0,0,0,563.44,41.3a3.359,3.359,0,0,0,1.818.513" transform="translate(-429.946 -23.326)" fill="#001f3c"></path><path id="Path_10" data-name="Path 10" d="M639.674,45.284a7.941,7.941,0,0,1-2.169-.477,6.453,6.453,0,0,1-1.855-1.055,4.7,4.7,0,0,1-1.268-1.605l3.4-1.466a2.655,2.655,0,0,0,.484.506,3.274,3.274,0,0,0,.784.477,2.633,2.633,0,0,0,1.077.2,3.5,3.5,0,0,0,.88-.11,1.5,1.5,0,0,0,.689-.367.907.907,0,0,0,.264-.682.839.839,0,0,0-.337-.719,2.369,2.369,0,0,0-.813-.374q-.477-.124-.916-.212a8.936,8.936,0,0,1-2.543-.843,5.639,5.639,0,0,1-1.942-1.576,3.675,3.675,0,0,1-.748-2.316,4.256,4.256,0,0,1,.777-2.558,5.149,5.149,0,0,1,2.023-1.664,6.258,6.258,0,0,1,2.7-.586,7.135,7.135,0,0,1,3.181.718A6.018,6.018,0,0,1,645.7,32.6l-3.2,1.891a2.765,2.765,0,0,0-.491-.535,3.089,3.089,0,0,0-.689-.44,2.287,2.287,0,0,0-.828-.213,3.414,3.414,0,0,0-1.041.066,1.42,1.42,0,0,0-.74.4,1.12,1.12,0,0,0-.271.792.753.753,0,0,0,.425.711,3.511,3.511,0,0,0,.982.337,7.546,7.546,0,0,1,.982.256,12.727,12.727,0,0,1,2.4,1.048,5.785,5.785,0,0,1,1.811,1.561,3.323,3.323,0,0,1,.645,2.17,3.978,3.978,0,0,1-.865,2.544,5.424,5.424,0,0,1-2.236,1.656,6.152,6.152,0,0,1-2.91.433" transform="translate(-489.248 -23.03)" fill="#001f3c"></path><path id="Path_11" data-name="Path 11" d="M702.717,6.919a7.48,7.48,0,0,1,3.892,1.041,7.89,7.89,0,0,1,2.793,2.793,7.451,7.451,0,0,1,1.041,3.877,7.573,7.573,0,0,1-.6,3.005,7.8,7.8,0,0,1-4.127,4.134,7.52,7.52,0,0,1-3,.6,4.465,4.465,0,0,1-2.243-.557,6.022,6.022,0,0,1-1.686-1.407V21.99h-4.046V0h4.046V8.884a5.812,5.812,0,0,1,1.686-1.415,4.512,4.512,0,0,1,2.243-.55m-.059,11.537a3.425,3.425,0,0,0,1.84-.513,3.725,3.725,0,0,0,1.312-1.385,3.9,3.9,0,0,0,.484-1.928,3.819,3.819,0,0,0-.491-1.92,3.859,3.859,0,0,0-1.319-1.385,3.367,3.367,0,0,0-1.825-.52,3.221,3.221,0,0,0-1.8.52,3.689,3.689,0,0,0-1.261,1.393,4.238,4.238,0,0,0,0,3.848,3.644,3.644,0,0,0,1.261,1.378,3.252,3.252,0,0,0,1.8.513" transform="translate(-535.799)" fill="#001f3c"></path><path id="Path_12" data-name="Path 12" d="M768.88,41.334V32.04h4.046v8.18a2.666,2.666,0,0,0,.374,1.4,2.781,2.781,0,0,0,1,.989,2.691,2.691,0,0,0,1.378.367,2.72,2.72,0,0,0,2.756-2.756V32.04h4.046L782.5,46.7h-4.046l-.015-1.114a5.3,5.3,0,0,1-1.723,1.1,5.738,5.738,0,0,1-4.977-.381,5.917,5.917,0,0,1-2.082-2.075,5.526,5.526,0,0,1-.777-2.9" transform="translate(-592.975 -24.71)" fill="#001f3c"></path><path id="Path_13" data-name="Path 13" d="M854.843,35.992v9.324H850.8v-8.21a2.667,2.667,0,0,0-.374-1.4,2.8,2.8,0,0,0-1-.989,2.682,2.682,0,0,0-1.385-.367,2.72,2.72,0,0,0-2.756,2.756v8.21h-4.046l-.015-14.66h4.046l.015,1.085a5.3,5.3,0,0,1,1.722-1.1,5.753,5.753,0,0,1,4.984.381,5.94,5.94,0,0,1,2.074,2.075,5.527,5.527,0,0,1,.777,2.9" transform="translate(-648.768 -23.326)" fill="#001f3c"></path><path id="Path_14" data-name="Path 14" d="M913.043,84a2.04,2.04,0,1,1,1.451-.594,1.99,1.99,0,0,1-1.451.594" transform="translate(-702.585 -61.625)" fill="#fa92c2"></path><path id="Path_15" data-name="Path 15" d="M281.411,173.589a4.989,4.989,0,0,1-2.071-.436,5.286,5.286,0,0,1-1.7-1.211,5.688,5.688,0,0,1-1.137-1.79,5.746,5.746,0,0,1-.409-2.171,5.67,5.67,0,0,1,1.577-3.964,5.38,5.38,0,0,1,1.7-1.191,5.109,5.109,0,0,1,4.423.158,5.294,5.294,0,0,1,1.859,1.635l-.74.4a4.464,4.464,0,0,0-1.573-1.331,4.218,4.218,0,0,0-1.921-.467,4.133,4.133,0,0,0-1.747.374,4.535,4.535,0,0,0-1.431,1.034,4.926,4.926,0,0,0,.008,6.721,4.564,4.564,0,0,0,1.431,1.03,4.13,4.13,0,0,0,1.747.374,4.066,4.066,0,0,0,1.508-.281,4.372,4.372,0,0,0,1.292-.79,4.789,4.789,0,0,0,.972-1.18,4.619,4.619,0,0,0,.547-1.45h-3.208v-.771h4.172a5.448,5.448,0,0,1-.47,2.063,5.638,5.638,0,0,1-1.161,1.689,5.434,5.434,0,0,1-1.666,1.141,4.911,4.911,0,0,1-2,.413" transform="translate(-212.931 -125.244)" fill="#001f3c"></path><path id="Path_16" data-name="Path 16" d="M334.261,166.974a.512.512,0,0,1-.366-.143.5.5,0,0,1,0-.717.513.513,0,0,1,.366-.143.5.5,0,0,1,.359.143.473.473,0,0,1,.151.358.48.48,0,0,1-.147.358.5.5,0,0,1-.363.143m-.424,1.458h.833v7.713h-.833Z" transform="translate(-257.39 -128)" fill="#001f3c"></path><path id="Path_17" data-name="Path 17" d="M357.487,178.966v4.743h-.833V179.1a2.417,2.417,0,0,0-.331-1.249,2.488,2.488,0,0,0-.895-.895,2.5,2.5,0,0,0-2.491,0,2.519,2.519,0,0,0-.9.895,2.394,2.394,0,0,0-.335,1.249v4.612h-.833V176h.833v1.18a3.087,3.087,0,0,1,2.6-1.4,3.091,3.091,0,0,1,1.608.428,3.231,3.231,0,0,1,1.149,1.153,3.1,3.1,0,0,1,.428,1.6" transform="translate(-270.598 -135.566)" fill="#001f3c"></path><path id="Path_18" data-name="Path 18" d="M392.753,183.91a3.584,3.584,0,0,1-1.94-.548,4.1,4.1,0,0,1-1.917-3.509,4.152,4.152,0,0,1,1.13-2.881,3.86,3.86,0,0,1,1.23-.875,3.6,3.6,0,0,1,1.5-.316,3.678,3.678,0,0,1,1.554.328,3.608,3.608,0,0,1,1.23.922,4.188,4.188,0,0,1,.795,1.4,5,5,0,0,1,.255,1.763h-6.818a3.356,3.356,0,0,0,.5,1.477,3.042,3.042,0,0,0,1.061,1.026,2.857,2.857,0,0,0,1.427.382,2.746,2.746,0,0,0,1.542-.451,3.284,3.284,0,0,0,1.1-1.238l.841.193a4.039,4.039,0,0,1-1.4,1.678,3.565,3.565,0,0,1-2.09.652m-3.008-4.427h6a3.076,3.076,0,0,0-.459-1.462,3.2,3.2,0,0,0-1.076-1.068,2.86,2.86,0,0,0-2.908-.008,3.145,3.145,0,0,0-1.068,1.061,3.373,3.373,0,0,0-.49,1.477" transform="translate(-299.924 -135.566)" fill="#001f3c"></path><path id="Path_19" data-name="Path 19" d="M437.128,181.9l.74.4a3.925,3.925,0,0,1-1.33,1.172,3.7,3.7,0,0,1-3.687-.108,4.1,4.1,0,0,1-1.917-3.509,4.154,4.154,0,0,1,1.13-2.881,3.857,3.857,0,0,1,1.23-.876,3.7,3.7,0,0,1,3.243.124,3.892,3.892,0,0,1,1.33,1.18l-.74.393a2.985,2.985,0,0,0-1.064-.875,2.878,2.878,0,0,0-1.273-.3,2.769,2.769,0,0,0-1.535.444,3.2,3.2,0,0,0-1.087,1.18,3.323,3.323,0,0,0-.4,1.616,3.269,3.269,0,0,0,.409,1.62,3.213,3.213,0,0,0,1.1,1.168,2.778,2.778,0,0,0,1.519.436,2.743,2.743,0,0,0,1.319-.332,3.164,3.164,0,0,0,1.018-.848" transform="translate(-332.346 -135.566)" fill="#001f3c"></path><path id="Path_20" data-name="Path 20" d="M473.93,174.291a3.585,3.585,0,0,1-1.94-.548,4.1,4.1,0,0,1-1.917-3.509,4.155,4.155,0,0,1,1.13-2.881,3.855,3.855,0,0,1,1.23-.876,3.707,3.707,0,0,1,3.436.231,4.047,4.047,0,0,1,1.4,1.473,4.287,4.287,0,0,1,.22,3.625,4.169,4.169,0,0,1-.829,1.292,3.865,3.865,0,0,1-1.227.875,3.591,3.591,0,0,1-1.5.316m0-.833a2.744,2.744,0,0,0,1.539-.447,3.3,3.3,0,0,0,1.485-2.777,3.331,3.331,0,0,0-.4-1.612,3.191,3.191,0,0,0-1.087-1.184,2.88,2.88,0,0,0-3.077,0,3.2,3.2,0,0,0-1.084,1.184,3.335,3.335,0,0,0-.4,1.608,3.254,3.254,0,0,0,.412,1.631,3.22,3.22,0,0,0,1.1,1.161,2.783,2.783,0,0,0,1.512.432m-.185-7.928.617-2.221h.833l-.895,2.221Z" transform="translate(-362.529 -125.946)" fill="#001f3c"></path><rect id="Rectangle_14" data-name="Rectangle 14" width="0.833" height="11.569" transform="translate(117.725 36.575)" fill="#001f3c"></rect><path id="Path_21" data-name="Path 21" d="M533.06,183.91a3.585,3.585,0,0,1-1.94-.548,4.1,4.1,0,0,1-1.917-3.509,4.154,4.154,0,0,1,1.13-2.881,3.854,3.854,0,0,1,1.23-.875,3.7,3.7,0,0,1,3.436.231,4.05,4.05,0,0,1,1.4,1.473,4.291,4.291,0,0,1,.22,3.625,4.175,4.175,0,0,1-.829,1.292,3.864,3.864,0,0,1-1.226.875,3.591,3.591,0,0,1-1.5.316m0-.833a2.745,2.745,0,0,0,1.539-.447,3.3,3.3,0,0,0,1.485-2.776,3.332,3.332,0,0,0-.4-1.612,3.193,3.193,0,0,0-1.088-1.184,2.88,2.88,0,0,0-3.077,0,3.2,3.2,0,0,0-1.084,1.184,3.332,3.332,0,0,0-.4,1.608,3.254,3.254,0,0,0,.412,1.631,3.219,3.219,0,0,0,1.1,1.161,2.781,2.781,0,0,0,1.512.432" transform="translate(-408.132 -135.566)" fill="#001f3c"></path><path id="Path_22" data-name="Path 22" d="M578.062,176.022h.833v8.037a3.031,3.031,0,0,1-.312,1.353,3.787,3.787,0,0,1-.844,1.126,4.1,4.1,0,0,1-1.207.771,3.581,3.581,0,0,1-1.392.282,3.425,3.425,0,0,1-1.55-.374,4.162,4.162,0,0,1-1.292-1,3.519,3.519,0,0,1-.752-1.365l.771-.355a2.633,2.633,0,0,0,.571,1.137,3.22,3.22,0,0,0,1.03.814,2.689,2.689,0,0,0,1.222.3,2.816,2.816,0,0,0,1.08-.216,3.249,3.249,0,0,0,.941-.59,2.875,2.875,0,0,0,.66-.86,2.266,2.266,0,0,0,.243-1.026v-1.89a3.419,3.419,0,0,1-1.134,1.276,2.946,2.946,0,0,1-1.689.49,3.67,3.67,0,0,1-1.512-.316,3.866,3.866,0,0,1-1.242-.875,4.188,4.188,0,0,1-.837-1.292,4.225,4.225,0,0,1,0-3.151,4.179,4.179,0,0,1,.837-1.3,3.873,3.873,0,0,1,1.242-.876,3.674,3.674,0,0,1,1.512-.316,2.98,2.98,0,0,1,1.689.482,3.327,3.327,0,0,1,1.134,1.284Zm-2.815,7.1a2.471,2.471,0,0,0,1.485-.447,2.914,2.914,0,0,0,.956-1.188,4.028,4.028,0,0,0,0-3.228,2.936,2.936,0,0,0-.964-1.184,2.463,2.463,0,0,0-1.473-.447,2.825,2.825,0,0,0-1.542.439,3.2,3.2,0,0,0-1.1,1.18,3.324,3.324,0,0,0-.409,1.635,3.268,3.268,0,0,0,1.527,2.8,2.817,2.817,0,0,0,1.527.436" transform="translate(-440.632 -135.591)" fill="#001f3c"></path><path id="Path_23" data-name="Path 23" d="M619.128,183.91a3.585,3.585,0,0,1-1.94-.548,4.1,4.1,0,0,1-1.917-3.509,4.154,4.154,0,0,1,1.13-2.881,3.854,3.854,0,0,1,1.23-.875,3.705,3.705,0,0,1,3.436.231,4.051,4.051,0,0,1,1.4,1.473,4.288,4.288,0,0,1,.22,3.625,4.167,4.167,0,0,1-.829,1.292,3.867,3.867,0,0,1-1.226.875,3.591,3.591,0,0,1-1.5.316m0-.833a2.745,2.745,0,0,0,1.539-.447,3.3,3.3,0,0,0,1.485-2.776,3.332,3.332,0,0,0-.4-1.612,3.2,3.2,0,0,0-1.088-1.184,2.88,2.88,0,0,0-3.077,0,3.2,3.2,0,0,0-1.084,1.184,3.332,3.332,0,0,0-.4,1.608,3.254,3.254,0,0,0,.412,1.631,3.218,3.218,0,0,0,1.1,1.161,2.781,2.781,0,0,0,1.512.432" transform="translate(-474.51 -135.566)" fill="#001f3c"></path><path id="Path_24" data-name="Path 24" d="M209.818,125.41H1.668a1.668,1.668,0,0,1,0-3.336h208.15a1.668,1.668,0,1,1,0,3.336" transform="translate(0 -94.146)" fill="#fa92c2"></path></g></g></svg>